<svg xmlns="http://www.w3.org/2000/svg" viewBox="0 0 1000 1480" font-family="Consolas, 'Courier New', monospace">
  <defs>
    <!-- Arrow markers -->
    <marker id="arrow-data" viewBox="0 0 10 10" refX="10" refY="5" markerWidth="6" markerHeight="6" orient="auto">
      <path d="M0,0 L10,5 L0,10 Z" fill="#1565C0"/>
    </marker>
    <marker id="arrow-ctrl" viewBox="0 0 10 10" refX="10" refY="5" markerWidth="6" markerHeight="6" orient="auto">
      <path d="M0,0 L10,5 L0,10 Z" fill="#E65100"/>
    </marker>
    <marker id="arrow-disabled" viewBox="0 0 10 10" refX="10" refY="5" markerWidth="6" markerHeight="6" orient="auto">
      <path d="M0,0 L10,5 L0,10 Z" fill="#9E9E9E"/>
    </marker>
    <marker id="arrow-safety" viewBox="0 0 10 10" refX="10" refY="5" markerWidth="6" markerHeight="6" orient="auto">
      <path d="M0,0 L10,5 L0,10 Z" fill="#C62828"/>
    </marker>

    <!-- Drop shadow filter -->
    <filter id="shadow" x="-5%" y="-5%" width="115%" height="115%">
      <feDropShadow dx="2" dy="2" stdDeviation="3" flood-opacity="0.15"/>
    </filter>

    <!-- Glow for safety elements -->
    <filter id="glow-red">
      <feGaussianBlur stdDeviation="2" result="blur"/>
      <feMerge><feMergeNode in="blur"/><feMergeNode in="SourceGraphic"/></feMerge>
    </filter>
  </defs>

  <!-- ============================================================ -->
  <!-- BACKGROUND -->
  <!-- ============================================================ -->
  <rect width="100%" height="100%" fill="#F5F5F5" rx="8"/>

  <!-- ============================================================ -->
  <!-- TITLE -->
  <!-- ============================================================ -->
  <rect x="30" y="20" width="940" height="60" rx="6" fill="#1A237E" filter="url(#shadow)"/>
  <text x="500" y="48" text-anchor="middle" fill="#FFFFFF" font-size="22" font-weight="bold" font-family="Arial, sans-serif">无人机飞控系统 — 运行时架构图</text>
  <text x="500" y="68" text-anchor="middle" fill="#B0BEC5" font-size="12" font-family="Arial, sans-serif">基于 refactor/stability-v1 分支真实代码逆向</text>

  <!-- Legend -->
  <rect x="30" y="95" width="940" height="40" rx="4" fill="#ECEFF1"/>
  <rect x="50" y="105" width="16" height="16" rx="3" fill="#00695C"/>
  <text x="72" y="117" fill="#37474F" font-size="11">Pi端 Python模块</text>
  <rect x="220" y="105" width="16" height="16" rx="3" fill="#E65100"/>
  <text x="242" y="117" fill="#37474F" font-size="11">FC端 C固件</text>
  <rect x="400" y="105" width="16" height="16" rx="3" fill="#9E9E9E"/>
  <text x="422" y="117" fill="#37474F" font-size="11">已禁用/注释</text>
  <rect x="570" y="105" width="16" height="16" rx="3" fill="#FFF3E0" stroke="#E65100" stroke-width="1"/>
  <text x="592" y="117" fill="#37474F" font-size="11">安全/保护机制</text>
  <line x1="770" y1="113" x2="810" y2="113" stroke="#1565C0" stroke-width="2" marker-end="url(#arrow-data)"/>
  <text x="818" y="117" fill="#37474F" font-size="11">数据流</text>

  <!-- ============================================================ -->
  <!-- SECTION 1: RASPBERRY PI (PYTHON) -->
  <!-- ============================================================ -->
  <rect x="30" y="150" width="940" height="640" rx="8" fill="#E0F2F1" stroke="#00695C" stroke-width="1.5" filter="url(#shadow)"/>
  <text x="500" y="176" text-anchor="middle" fill="#00695C" font-size="16" font-weight="bold" font-family="Arial, sans-serif">Raspberry Pi — 上位机 (Python)</text>

  <!-- ==================== Module: t265 ==================== -->
  <rect x="55" y="195" width="280" height="175" rx="6" fill="#FFFFFF" stroke="#00695C" stroke-width="1.5" filter="url(#shadow)"/>
  <rect x="55" y="195" width="280" height="28" rx="6" fill="#00695C"/>
  <rect x="55" y="215" width="280" height="8" fill="#00695C"/>
  <text x="195" y="214" text-anchor="middle" fill="#FFFFFF" font-size="13" font-weight="bold">t265.py — 视觉里程计</text>
  <text x="65" y="242" fill="#37474F" font-size="10">📁 drone_control/t265.py</text>
  <text x="65" y="258" fill="#546E7A" font-size="11">class t265_class()</text>
  <text x="75" y="275" fill="#37474F" font-size="10">• 数据采集线程 @200Hz (raw pipe)</text>
  <text x="75" y="290" fill="#37474F" font-size="10">• 低通滤波 alpha=0.15 (位置+速度)</text>
  <text x="75" y="305" fill="#37474F" font-size="10">• T265坐标 → 航空坐标系 变换</text>
  <text x="75" y="320" fill="#37474F" font-size="10">• 追踪置信度 0~3 (3=最优)</text>
  <text x="75" y="340" fill="#37474F" font-size="10">get_position() → [x, y, z]</text>
  <text x="75" y="355" fill="#37474F" font-size="10">get_velocity() → [vx, vy, vz]</text>
  <text x="75" y="365" fill="#37474F" font-size="10">get_orientation() → [r, p, yaw]</text>

  <!-- ==================== Module: Lpid ==================== -->
  <rect x="365" y="195" width="270" height="175" rx="6" fill="#FFFFFF" stroke="#00695C" stroke-width="1.5" filter="url(#shadow)"/>
  <rect x="365" y="195" width="270" height="28" rx="6" fill="#00695C"/>
  <rect x="365" y="215" width="270" height="8" fill="#00695C"/>
  <text x="500" y="214" text-anchor="middle" fill="#FFFFFF" font-size="13" font-weight="bold">Lpid.py — PID 控制器</text>
  <text x="375" y="242" fill="#37474F" font-size="10">📁 drone_control/Lcode/Lpid.py</text>
  <text x="375" y="258" fill="#546E7A" font-size="11">class PID(type, target, p, i, d)</text>
  <text x="385" y="280" fill="#37474F" font-size="11" font-weight="bold">── XY PID (type=0) ──</text>
  <text x="395" y="298" fill="#37474F" font-size="10">Kp = 0.7    Ki = 0.002</text>
  <text x="395" y="313" fill="#37474F" font-size="10">Kd = 0.05   输出限幅 ±40</text>
  <text x="385" y="333" fill="#37474F" font-size="11" font-weight="bold">── Yaw PID (type=1) ──</text>
  <text x="395" y="351" fill="#37474F" font-size="10">Kp = 1.5    Ki = 0.0</text>
  <text x="395" y="366" fill="#37474F" font-size="10">Kd = 0.3   输出限幅 ±30</text>

  <!-- ==================== Module: global_variable ==================== -->
  <rect x="665" y="195" width="280" height="175" rx="6" fill="#FFFFFF" stroke="#00695C" stroke-width="1.5" filter="url(#shadow)"/>
  <rect x="665" y="195" width="280" height="28" rx="6" fill="#00695C"/>
  <rect x="665" y="215" width="280" height="8" fill="#00695C"/>
  <text x="805" y="214" text-anchor="middle" fill="#FFFFFF" font-size="13" font-weight="bold">global_variable.py — 共享状态</text>
  <text x="675" y="242" fill="#37474F" font-size="10">📁 drone_control/Lcode/global_variable.py</text>
  <text x="675" y="262" fill="#546E7A" font-size="11">线程安全共享变量</text>
  <text x="685" y="282" fill="#37474F" font-size="10">sp_side = 51    串口速度偏置量</text>
  <text x="685" y="300" fill="#37474F" font-size="10">lock = Lock()   threading 互斥锁</text>
  <text x="685" y="318" fill="#37474F" font-size="10">fc_last_rx_time 飞控最后回传时间戳</text>
  <text x="685" y="336" fill="#37474F" font-size="10">task_start_sign 任务启动标志</text>
  <text x="685" y="360" fill="#B71C1C" font-size="10" font-weight="bold">⚠ fc_last_rx 不更新 → 2s 超时急停失效</text>

  <!-- Arrow: t265 → Lpid (position/velocity data) -->
  <line x1="335" y1="230" x2="363" y2="265" stroke="#1565C0" stroke-width="1.5" marker-end="url(#arrow-data)"/>
  <text x="340" y="255" fill="#1565C0" font-size="9">pos/vel/yaw</text>

  <!-- Arrow: global_variable → all modules (lock) -->
  <line x1="665" y1="290" x2="637" y2="290" stroke="#1565C0" stroke-width="1" stroke-dasharray="4,3"/>
  <text x="640" y="285" fill="#1565C0" font-size="9">lock</text>

  <!-- ==================== Module: Mission_GPT (centerpiece) ==================== -->
  <rect x="55" y="395" width="890" height="195" rx="6" fill="#FFFFFF" stroke="#00695C" stroke-width="2" filter="url(#shadow)"/>
  <rect x="55" y="395" width="890" height="32" rx="6" fill="#004D40"/>
  <rect x="55" y="419" width="890" height="8" fill="#004D40"/>
  <text x="500" y="416" text-anchor="middle" fill="#FFFFFF" font-size="14" font-weight="bold">Mission_GPT.py — 任务状态机 (核心控制逻辑)</text>

  <!-- State Machine Diagram inside Mission_GPT -->
  <text x="75" y="448" fill="#37474F" font-size="10">📁 drone_control/Mission_GPT.py  |  class mission()  |  控制周期 30ms</text>

  <!-- States -->
  <rect x="80" y="462" width="90" height="32" rx="16" fill="#E8F5E9" stroke="#2E7D32" stroke-width="1.5"/>
  <text x="125" y="482" text-anchor="middle" fill="#2E7D32" font-size="11" font-weight="bold">IDLE</text>

  <line x1="170" y1="478" x2="210" y2="478" stroke="#2E7D32" stroke-width="1.5" marker-end="url(#arrow-ctrl)"/>
  <text x="180" y="472" fill="#2E7D32" font-size="9">start()</text>

  <rect x="212" y="462" width="110" height="32" rx="16" fill="#FFF3E0" stroke="#E65100" stroke-width="1.5"/>
  <text x="267" y="482" text-anchor="middle" fill="#E65100" font-size="11" font-weight="bold">TAKEOFF</text>

  <line x1="322" y1="478" x2="362" y2="478" stroke="#E65100" stroke-width="1.5" marker-end="url(#arrow-ctrl)"/>
  <text x="332" y="472" fill="#E65100" font-size="9">高度确认</text>

  <rect x="364" y="462" width="120" height="32" rx="16" fill="#E3F2FD" stroke="#1565C0" stroke-width="1.5"/>
  <text x="424" y="482" text-anchor="middle" fill="#1565C0" font-size="11" font-weight="bold">NAVIGATE</text>

  <line x1="484" y1="478" x2="524" y2="478" stroke="#E65100" stroke-width="1.5" marker-end="url(#arrow-ctrl)"/>
  <text x="494" y="472" fill="#E65100" font-size="9">航点完成</text>

  <rect x="526" y="462" width="90" height="32" rx="16" fill="#F3E5F5" stroke="#6A1B9A" stroke-width="1.5"/>
  <text x="571" y="482" text-anchor="middle" fill="#6A1B9A" font-size="11" font-weight="bold">LAND</text>

  <line x1="616" y1="478" x2="656" y2="478" stroke="#6A1B9A" stroke-width="1.5"/>
  <text x="626" y="472" fill="#6A1B9A" font-size="9">land()</text>

  <rect x="658" y="462" width="90" height="32" rx="16" fill="#FFEBEE" stroke="#C62828" stroke-width="1.5"/>
  <text x="703" y="482" text-anchor="middle" fill="#C62828" font-size="11" font-weight="bold">END</text>

  <!-- Key methods -->
  <text x="75" y="512" fill="#37474F" font-size="11" font-weight="bold">核心方法:</text>
  <text x="75" y="530" fill="#37474F" font-size="10">takeoff()         → 触发解锁 se_fc[2]=1, 闭环确认高度, 偏航稳定</text>
  <text x="75" y="546" fill="#37474F" font-size="10">navigate(pos,yaw) → XY PID → vx/vy,  Yaw PID → vyaw, 高度 Ramp → com_z</text>
  <text x="75" y="562" fill="#37474F" font-size="10">_step_ramp_z()    → RAMP_STEP=1.5 cm/帧 ≈ 50 cm/s 爬升/下降率</text>
  <text x="75" y="578" fill="#37474F" font-size="10">set_speed(x,y,yaw,z) → 写入 se_fc[3..6] 共享缓冲区</text>

  <!-- Parameters box inside Mission_GPT -->
  <rect x="570" y="500" width="360" height="78" rx="4" fill="#F5F5F5" stroke="#BDBDBD" stroke-width="1"/>
  <text x="580" y="515" fill="#37474F" font-size="11" font-weight="bold">⚙️ Mission_GPT 参数</text>
  <text x="580" y="532" fill="#37474F" font-size="10">VEL_SCALE = 0.7         速度缩放系数</text>
  <text x="580" y="547" fill="#37474F" font-size="10">posthreshold_xy = 0.15   XY到达阈值 (m)</text>
  <text x="580" y="562" fill="#37474F" font-size="10">arrival_confirm_need = 15  连续确认帧数</text>
  <text x="580" y="577" fill="#37474F" font-size="10">TAKEOFF_CONFIRM_NEED=10  TAKEOFF_TIMEOUT_S=15</text>

  <!-- ==================== Module: Lprotocol ==================== -->
  <rect x="55" y="610" width="550" height="165" rx="6" fill="#FFFFFF" stroke="#00695C" stroke-width="1.5" filter="url(#shadow)"/>
  <rect x="55" y="610" width="550" height="28" rx="6" fill="#00695C"/>
  <rect x="55" y="630" width="550" height="8" fill="#00695C"/>
  <text x="330" y="629" text-anchor="middle" fill="#FFFFFF" font-size="13" font-weight="bold">Lprotocol.py — 串口通信层</text>
  <text x="65" y="648" fill="#37474F" font-size="10">📁 drone_control/Lcode/Lprotocol.py</text>

  <!-- Serial_fc -->
  <rect x="65" y="658" width="250" height="105" rx="4" fill="#F5F5F5" stroke="#BDBDBD" stroke-width="1"/>
  <text x="75" y="673" fill="#37474F" font-size="11" font-weight="bold">class Serial_fc (460800 baud)</text>
  <text x="75" y="690" fill="#37474F" font-size="10">_send_t265_loop()  → 100Hz  AA 01</text>
  <text x="75" y="706" fill="#37474F" font-size="10">_send_command_loop() → 50Hz  AA 02</text>
  <text x="75" y="722" fill="#37474F" font-size="10">listen_fc() → 接收下行遥测 AA..FF</text>
  <text x="75" y="738" fill="#37474F" font-size="10">_last_laser_height_cm (m) 缓存</text>
  <text x="75" y="754" fill="#9E9E9E" font-size="10">send_start(comlist, t265, 100Hz, 50Hz)</text>

  <!-- Protocol Frame Detail -->
  <rect x="330" y="648" width="265" height="115" rx="4" fill="#FFF8E1" stroke="#FFB300" stroke-width="1"/>
  <text x="340" y="665" fill="#37474F" font-size="11" font-weight="bold">帧协议摘要</text>
  <text x="340" y="683" fill="#E65100" font-size="10" font-weight="bold">AA 01</text>
  <text x="395" y="683" fill="#37474F" font-size="10">T265速度帧 vx/vy/yaw</text>
  <text x="340" y="700" fill="#E65100" font-size="10" font-weight="bold">AA 02</text>
  <text x="395" y="700" fill="#37474F" font-size="10">指令帧  task_sta/vx/vy/z/yaw</text>
  <text x="340" y="717" fill="#9E9E9E" font-size="10" font-weight="bold">AA .. FF</text>
  <text x="395" y="717" fill="#9E9E9E" font-size="10">下行遥测  (当前禁用, 见下方)</text>
  <text x="340" y="740" fill="#37474F" font-size="10">CK = XOR(除AA,FF外所有字节)</text>

  <!-- ==================== Disabled: pi_send marker ==================== -->
  <rect x="630" y="615" width="310" height="70" rx="6" fill="#F5F5F5" stroke="#9E9E9E" stroke-width="1.5" stroke-dasharray="6,4"/>
  <rect x="630" y="615" width="310" height="24" rx="6" fill="#9E9E9E"/>
  <text x="785" y="632" text-anchor="middle" fill="#FFFFFF" font-size="11" font-weight="bold">⚠ 已禁用: pi_send() 下行链路</text>
  <text x="640" y="656" fill="#C62828" font-size="10" font-weight="bold">Ano_Scheduler.c:47  pi_send() 被注释</text>
  <text x="640" y="672" fill="#C62828" font-size="10">后果: FC回传中断 → 急停失效 → Z轴退化为开环</text>

  <!-- Disabled icon -->
  <circle cx="920" cy="650" r="12" fill="#FFEBEE" stroke="#C62828" stroke-width="1.5"/>
  <line x1="914" y1="644" x2="926" y2="656" stroke="#C62828" stroke-width="2.5"/>
  <text x="920" y="637" text-anchor="middle" fill="#C62828" font-size="9" font-weight="bold">!</text>

  <!-- ==================== Data flow arrows within Pi ==================== -->
  <!-- Mission_GPT → Lprotocol (writes se_fc buffer) -->
  <line x1="330" y1="395" x2="330" y2="610" stroke="#1565C0" stroke-width="1.5" marker-end="url(#arrow-data)"/>
  <text x="290" y="505" fill="#1565C0" font-size="9" transform="rotate(-90, 290, 505)">set_speed() 写入 se_fc[3..6]</text>

  <!-- t265 → Mission_GPT -->
  <line x1="195" y1="370" x2="300" y2="395" stroke="#1565C0" stroke-width="1.5" marker-end="url(#arrow-data)"/>
  <text x="215" y="388" fill="#1565C0" font-size="9">get_position() / get_orientation()</text>

  <!-- Lpid → Mission_GPT (PID results used inside navigate) -->
  <line x1="500" y1="370" x2="430" y2="395" stroke="#1565C0" stroke-width="1.5" marker-end="url(#arrow-data)"/>
  <text x="460" y="388" fill="#1565C0" font-size="9">get_pid() → vx, vy, vyaw</text>


  <!-- ============================================================ -->
  <!-- SECTION DIVIDER: SERIAL LINK -->
  <!-- ============================================================ -->
  <rect x="30" y="800" width="940" height="60" rx="6" fill="#ECEFF1" stroke="#90A4AE" stroke-width="1"/>
  <text x="500" y="822" text-anchor="middle" fill="#37474F" font-size="13" font-weight="bold" font-family="Arial, sans-serif">UART 串行通信 (460800 baud, 8N1)</text>
  <text x="500" y="842" text-anchor="middle" fill="#546E7A" font-size="11" font-family="Arial, sans-serif">物理层：Linux /dev/ttyS6  |  帧同步：0xAA 起始 + 0xFF 结尾  |  校验：XOR</text>
  <line x1="100" y1="830" x2="200" y2="830" stroke="#1565C0" stroke-width="2" marker-end="url(#arrow-data)"/>
  <text x="110" y="825" fill="#1565C0" font-size="9" font-weight="bold">Pi → FC</text>
  <line x1="780" y1="830" x2="880" y2="830" stroke="#9E9E9E" stroke-width="2" stroke-dasharray="6,3" marker-end="url(#arrow-disabled)"/>
  <text x="800" y="825" fill="#9E9E9E" font-size="9" font-weight="bold">FC → Pi (已禁用)</text>


  <!-- ============================================================ -->
  <!-- SECTION 2: STM32 FC FIRMWARE (C) -->
  <!-- ============================================================ -->
  <rect x="30" y="875" width="940" height="380" rx="8" fill="#FFF3E0" stroke="#E65100" stroke-width="1.5" filter="url(#shadow)"/>
  <text x="500" y="901" text-anchor="middle" fill="#E65100" font-size="16" font-weight="bold" font-family="Arial, sans-serif">STM32F407 — 飞控固件 (C / Keil MDK)</text>

  <!-- ==================== Ano_Scheduler ==================== -->
  <rect x="55" y="918" width="420" height="145" rx="6" fill="#FFFFFF" stroke="#E65100" stroke-width="1.5" filter="url(#shadow)"/>
  <rect x="55" y="918" width="420" height="28" rx="6" fill="#E65100"/>
  <text x="265" y="937" text-anchor="middle" fill="#FFFFFF" font-size="13" font-weight="bold">Ano_Scheduler.c — 50Hz 主调度循环</text>
  <text x="65" y="958" fill="#37474F" font-size="10">📁 ANO_LX_FC_倾角保护版/FcSrc/Ano_Scheduler.c:44</text>

  <rect x="65" y="968" width="400" height="85" rx="4" fill="#F5F5F5"/>
  <text x="75" y="985" fill="#546E7A" font-size="11" font-weight="bold">void Loop_50Hz(void)   // 20ms 周期</text>
  <line x1="90" y1="992" x2="440" y2="992" stroke="#BDBDBD" stroke-width="0.5"/>
  <text x="85" y="1008" fill="#37474F" font-size="10">├─ UserTask_OneKeyCmd()    — 一键起飞指令处理</text>
  <text x="85" y="1023" fill="#9E9E9E" font-size="10">├─ // pi_send();          — [已禁用] 下行遥测打包发送</text>
  <text x="85" y="1038" fill="#37474F" font-size="10">├─ flex_send_t265_vel()   — T265速度转发到光流串口</text>
  <text x="85" y="1048" fill="#37474F" font-size="10">└─ flex_send_guangliu_vel() — 光流速度转发</text>

  <!-- ==================== my_protocol ==================== -->
  <rect x="505" y="918" width="450" height="320" rx="6" fill="#FFFFFF" stroke="#E65100" stroke-width="1.5" filter="url(#shadow)"/>
  <rect x="505" y="918" width="450" height="28" rx="6" fill="#E65100"/>
  <text x="730" y="937" text-anchor="middle" fill="#FFFFFF" font-size="13" font-weight="bold">my_protocol.c / .h — 通信协议与控制</text>
  <text x="515" y="958" fill="#37474F" font-size="10">📁 ANO_LX_FC_倾角保护版/Mycode/my_protocol.c</text>
  <text x="515" y="972" fill="#37474F" font-size="10">📁 ANO_LX_FC_倾角保护版/Mycode/my_protocol.h</text>
  <text x="515" y="988" fill="#546E7A" font-size="11">编码约束: GB2312 (Keil), 中文注释不可破坏</text>

  <!-- height_set detail -->
  <rect x="515" y="998" width="430" height="150" rx="4" fill="#FFF8E1" stroke="#FFB300" stroke-width="1"/>
  <text x="525" y="1015" fill="#37474F" font-size="11" font-weight="bold">s16 height_set(u32 height, u16 height_target)   → vel_z ∈ [-30, +30]</text>
  <text x="525" y="1033" fill="#37474F" font-size="10">位置式PID (重构后):</text>
  <text x="535" y="1050" fill="#37474F" font-size="10">① 倾斜补偿: tilt_rad → height *= cos(tilt_rad)</text>
  <text x="535" y="1065" fill="#37474F" font-size="10">② 积分分离: |err|&gt;200 清 s_height_integral</text>
  <text x="535" y="1080" fill="#37474F" font-size="10">③ 位置式输出: Kp·err + Ki·∫err + Kd·Δerr</text>
  <line x1="525" y1="1090" x2="935" y2="1090" stroke="#FFB300" stroke-width="0.5"/>
  <text x="535" y="1107" fill="#E65100" font-size="12" font-weight="bold">Kp=0.8  Ki=0.05  Kd=0.2  |  Limit=±30</text>
  <text x="535" y="1123" fill="#546E7A" font-size="10">静态变量: s_height_integral, s_height_err_last</text>
  <text x="535" y="1138" fill="#546E7A" font-size="10">PID_init() 中清零</text>

  <!-- Other functions -->
  <rect x="515" y="1155" width="430" height="75" rx="4" fill="#F5F5F5"/>
  <text x="525" y="1172" fill="#37474F" font-size="11" font-weight="bold">其他函数:</text>
  <text x="525" y="1188" fill="#37474F" font-size="10">pi_send()      — 下行遥测打包 (AA + mission_stage + roll/pitch/yaw + 激光高度 + CK + FF)</text>
  <text x="525" y="1203" fill="#37474F" font-size="10">pi_receive()   — 上行指令解析 (AA 01/02 帧分发)</text>
  <text x="525" y="1218" fill="#37474F" font-size="10">PID_init()     — PID参数初始化 (height_PID + xy_PID + 状态变量)</text>

  <!-- ==================== Ano_Scheduler connections ==================== -->
  <!-- Scheduler calls my_protocol functions -->
  <line x1="475" y1="970" x2="503" y2="970" stroke="#E65100" stroke-width="1.5" marker-end="url(#arrow-ctrl)"/>
  <text x="482" y="965" fill="#E65100" font-size="9">调用</text>

  <!-- Serial link from Lprotocol to FC -->
  <line x1="330" y1="775" x2="330" y2="918" stroke="#1565C0" stroke-width="2" marker-end="url(#arrow-data)"/>
  <text x="310" y="850" fill="#1565C0" font-size="9" transform="rotate(-90, 310, 850)">Pi→FC: AA01速度帧@100Hz + AA02指令帧@50Hz</text>

  <!-- Disabled downlink -->
  <line x1="730" y1="800" x2="730" y2="918" stroke="#9E9E9E" stroke-width="1.5" stroke-dasharray="6,3" marker-end="url(#arrow-disabled)"/>
  <text x="710" y="860" fill="#9E9E9E" font-size="9" transform="rotate(-90, 710, 860)">FC→Pi: AA..FF下行@50Hz (已禁用)</text>


  <!-- ============================================================ -->
  <!-- SECTION 3: SAFETY CHAIN & STATE MACHINE SUMMARY -->
  <!-- ============================================================ -->
  <rect x="30" y="1270" width="940" height="190" rx="8" fill="#FFEBEE" stroke="#C62828" stroke-width="1.5" filter="url(#shadow)"/>
  <text x="500" y="1296" text-anchor="middle" fill="#C62828" font-size="15" font-weight="bold" font-family="Arial, sans-serif">安全链路与运行保护机制</text>

  <!-- Safety chain boxes -->
  <rect x="55" y="1315" width="280" height="90" rx="6" fill="#FFFFFF" stroke="#EF5350" stroke-width="1.5"/>
  <rect x="55" y="1315" width="280" height="24" rx="6" fill="#EF5350"/>
  <text x="195" y="1332" text-anchor="middle" fill="#FFFFFF" font-size="11" font-weight="bold">① 串口超时急停</text>
  <text x="65" y="1353" fill="#37474F" font-size="10">Mission_GPT.loop():179</text>
  <text x="65" y="1370" fill="#37474F" font-size="10">if fc_last_rx_time &gt; 0</text>
  <text x="65" y="1385" fill="#37474F" font-size="10">  AND time.time()-fc_last_rx &gt; 2.0s</text>
  <text x="65" y="1397" fill="#C62828" font-size="10" font-weight="bold">→ emergency_stop = True</text>

  <rect x="360" y="1315" width="280" height="90" rx="6" fill="#FFFFFF" stroke="#EF5350" stroke-width="1.5"/>
  <rect x="360" y="1315" width="280" height="24" rx="6" fill="#EF5350"/>
  <text x="500" y="1332" text-anchor="middle" fill="#FFFFFF" font-size="11" font-weight="bold">② T265 丢失急停</text>
  <text x="370" y="1353" fill="#37474F" font-size="10">Mission_GPT.loop():185</text>
  <text x="370" y="1370" fill="#37474F" font-size="10">if t265_ok AND !realsense.is_running()</text>
  <text x="370" y="1385" fill="#37474F" font-size="10">  (T265数据线程已停止)</text>
  <text x="370" y="1397" fill="#C62828" font-size="10" font-weight="bold">→ emergency_stop = True</text>

  <rect x="665" y="1315" width="290" height="90" rx="6" fill="#FFFFFF" stroke="#EF5350" stroke-width="1.5"/>
  <rect x="665" y="1315" width="290" height="24" rx="6" fill="#EF5350"/>
  <text x="810" y="1332" text-anchor="middle" fill="#FFFFFF" font-size="11" font-weight="bold">③ 飞控端倾角保护</text>
  <text x="675" y="1353" fill="#37474F" font-size="10">angle_protect.h (固件内置)</text>
  <text x="675" y="1370" fill="#37474F" font-size="10">倾角 &gt; 45° 自动急停</text>
  <text x="675" y="1385" fill="#37474F" font-size="10">遥控器 CH8 可手动触发</text>
  <text x="675" y="1397" fill="#546E7A" font-size="10">独立于Pi，FC本地执行</text>

  <!-- Note about disabled safety -->
  <rect x="55" y="1418" width="900" height="28" rx="4" fill="#FFF0F0" stroke="#EF9A9A" stroke-width="1"/>
  <text x="505" y="1437" text-anchor="middle" fill="#C62828" font-size="11" font-weight="bold">⚠ 安全状态: pi_send() 禁用导致①失效 — 当前仅②和③有效，需尽快恢复下行链路</text>

  <!-- ============================================================ -->
  <!-- FOOTER -->
  <!-- ============================================================ -->
  <rect x="30" y="1455" width="940" height="20" rx="4" fill="#ECEFF1"/>
  <text x="500" y="1469" text-anchor="middle" fill="#90A4AE" font-size="10">分支: refactor/stability-v1  |  生成日期: 2026-07-03  |  代码逆向至最新提交 80d3135</text>
</svg>